Coordinates
version=1
nRows=5
nColumns=40
inDegrees=yes

Units are S.I. units (second, meters, Newtons, ...)
Angles are in degrees.

endheader
time	pelvis_tilt	pelvis_list	pelvis_rotation	pelvis_tx	pelvis_ty	pelvis_tz	hip_flexion_r	hip_adduction_r	hip_rotation_r	knee_angle_r	knee_angle_r_beta	ankle_angle_r	subtalar_angle_r	mtp_angle_r	hip_flexion_l	hip_adduction_l	hip_rotation_l	knee_angle_l	knee_angle_l_beta	ankle_angle_l	subtalar_angle_l	mtp_angle_l	lumbar_extension	lumbar_bending	lumbar_rotation	arm_flex_r	arm_add_r	arm_rot_r	elbow_flex_r	pro_sup_r	wrist_flex_r	wrist_dev_r	arm_flex_l	arm_add_l	arm_rot_l	elbow_flex_l	pro_sup_l	wrist_flex_l	wrist_dev_l
      7.07500000	     -3.86535992	     -5.09444169	     -0.39536740	      0.93029745	      0.92522344	      0.49469707	     19.69398462	      2.98530059	    -16.47151529	     17.92272825	     17.92272825	      5.15307044	     -0.27106939	     -4.31294446	     12.23099423	    -11.82271940	     -6.11861371	     49.41770861	     49.41770861	     15.39772415	    -18.68505558	     10.13808851	     -8.86252141	      8.53310927	      3.21891001	     -0.34651869	    -11.86987424	     -9.09556609	     25.33748728	     46.45565991	      0.00000000	      0.00000000	     10.79440855	     -8.41578170	     -3.11036733	     53.90699400	     46.75948831	      0.00000000	      0.00000000
      7.08714286	     -3.82111333	     -5.24677525	     -0.07596471	      0.93038232	      0.92639664	      0.49643371	     18.76933255	      3.30003791	    -16.77271594	     17.25147481	     17.25147481	      5.51692292	      0.04016176	     -4.39384002	     14.11152199	    -12.38558702	     -5.37940740	     52.36950675	     52.36950675	     14.55121114	    -18.87087685	     10.88025044	     -8.93525260	      8.64481857	      3.09216590	      1.05970410	    -11.88049795	     -8.99770237	     26.32219758	     46.41761906	      0.00000000	      0.00000000	      9.83799827	     -8.28276296	     -2.82833837	     52.49535660	     46.71090864	      0.00000000	      0.00000000
      7.09928571	     -3.74317712	     -5.23929271	      0.24457924	      0.93036057	      0.92753503	      0.49784753	     17.84876348	      3.40931369	    -17.11320621	     16.64533260	     16.64533260	      5.72377473	      0.44310771	     -5.03357611	     16.02301634	    -12.56806805	     -4.48211388	     55.11232598	     55.11232598	     15.20287117	    -18.97391411	     15.04997846	     -8.92097661	      8.56664955	      3.54502729	      1.84537562	    -12.21503536	     -8.04991235	     28.26057180	     46.26650501	      0.00000000	      0.00000000	     10.19107641	     -7.74016066	     -2.30099910	     48.38246474	     46.62270708	      0.00000000	      0.00000000
      7.11142857	     -3.70908208	     -5.35880952	      0.50514695	      0.93016615	      0.92836332	      0.49945102	     17.06444612	      3.69454485	    -17.29453627	     16.16872054	     16.16872054	      6.04674625	      0.57309957	     -5.10113181	     17.83393741	    -13.01368758	     -3.89765501	     57.19452174	     57.19452174	     14.64888993	    -19.08658005	     15.17975098	     -8.97055368	      8.58275821	      3.60649864	      3.29890169	    -12.33108057	     -7.97277058	     29.25441584	     46.23076827	      0.00000000	      0.00000000	      9.18738713	     -7.61385580	     -2.08322002	     47.31450559	     46.57893349	      0.00000000	      0.00000000
      7.12357143	     -3.67650334	     -5.34331703	      0.78855060	      0.92983377	      0.92917980	      0.50081748	     16.25363148	      3.84956273	    -17.37342305	     15.59056374	     15.59056374	      6.11270979	      0.56910668	     -5.74007884	     19.67018970	    -13.14483363	     -3.20287896	     58.91307901	     58.91307901	     15.06189244	    -19.14705793	     17.55334522	     -8.97854888	      8.48851376	      3.94337440	      3.95536188	    -12.80693743	     -6.55976854	     32.10054879	     46.01617406	      0.00000000	      0.00000000	      9.34297274	     -7.29028871	     -1.51657359	     43.27851550	     46.47906879	      0.00000000	      0.00000000
